<svg width="47" height="41" viewBox="0 0 47 41" fill="none" xmlns="http://www.w3.org/2000/svg">
<path d="M41.5887 5.26326C40.511 4.22892 39.2303 3.40822 37.8202 2.84824C36.4101 2.28826 34.8983 2 33.3715 2C31.8446 2 30.3328 2.28826 28.9227 2.84824C27.5126 3.40822 26.232 4.22892 25.1542 5.26326L23.5 6.86585L21.8458 5.26326C20.7681 4.22892 19.4874 3.40822 18.0773 2.84824C16.6672 2.28826 15.1554 2 13.6285 2C12.1017 2 10.5899 2.28826 9.1798 2.84824C7.7697 3.40822 6.48905 4.22892 5.41129 5.26326C0.856885 9.61904 0.577606 16.9745 6.31358 22.5631L23.5 39L40.6864 22.5631C46.4224 16.9745 46.1431 9.61904 41.5887 5.26326Z" stroke="white" stroke-width="4" stroke-linecap="round" stroke-linejoin="round"/>
</svg>
